<mxfile host="Electron" modified="2024-03-03T15:26:19.490Z" agent="Mozilla/5.0 (Windows NT 10.0; Win64; x64) AppleWebKit/537.36 (KHTML, like Gecko) draw.io/23.1.5 Chrome/120.0.6099.109 Electron/28.1.0 Safari/537.36" etag="6IqYXDlVsDV4zyVNXB3Y" version="23.1.5" type="device">
  <diagram name="Page-1" id="A6vu8XVovvFWcUr1tH7J">
    <mxGraphModel dx="1434" dy="854" grid="1" gridSize="10" guides="1" tooltips="1" connect="1" arrows="1" fold="1" page="1" pageScale="1" pageWidth="1169" pageHeight="1654" math="0" shadow="0">
      <root>
        <mxCell id="0" />
        <mxCell id="1" parent="0" />
        <mxCell id="Gxf1ou_6h484_6Ft3IIh-24" style="edgeStyle=orthogonalEdgeStyle;rounded=1;orthogonalLoop=1;jettySize=auto;html=1;entryX=0;entryY=0.5;entryDx=0;entryDy=0;labelBackgroundColor=none;strokeColor=#0B4D6A;fontColor=default;" parent="1" source="Gxf1ou_6h484_6Ft3IIh-1" target="Gxf1ou_6h484_6Ft3IIh-2" edge="1">
          <mxGeometry relative="1" as="geometry" />
        </mxCell>
        <mxCell id="Gxf1ou_6h484_6Ft3IIh-41" style="edgeStyle=orthogonalEdgeStyle;rounded=1;orthogonalLoop=1;jettySize=auto;html=1;entryX=0;entryY=0.5;entryDx=0;entryDy=0;labelBackgroundColor=none;strokeColor=#0B4D6A;fontColor=default;" parent="1" source="Gxf1ou_6h484_6Ft3IIh-1" target="Gxf1ou_6h484_6Ft3IIh-4" edge="1">
          <mxGeometry relative="1" as="geometry" />
        </mxCell>
        <mxCell id="Gxf1ou_6h484_6Ft3IIh-1" value="HR Analytics" style="rounded=1;whiteSpace=wrap;html=1;labelBackgroundColor=none;fillColor=#09555B;strokeColor=#BAC8D3;fontColor=#EEEEEE;" parent="1" vertex="1">
          <mxGeometry x="30" y="430" width="120" height="60" as="geometry" />
        </mxCell>
        <mxCell id="JilZe2ffzrrwEnzoaYCA-7" style="edgeStyle=orthogonalEdgeStyle;rounded=0;orthogonalLoop=1;jettySize=auto;html=1;entryX=0;entryY=0.5;entryDx=0;entryDy=0;" edge="1" parent="1" source="Gxf1ou_6h484_6Ft3IIh-2" target="Gxf1ou_6h484_6Ft3IIh-22">
          <mxGeometry relative="1" as="geometry" />
        </mxCell>
        <mxCell id="Gxf1ou_6h484_6Ft3IIh-2" value="Report Analysis" style="whiteSpace=wrap;html=1;rounded=1;labelBackgroundColor=none;fillColor=#0050ef;strokeColor=#001DBC;fontColor=#ffffff;" parent="1" vertex="1">
          <mxGeometry x="243" y="229" width="120" height="60" as="geometry" />
        </mxCell>
        <mxCell id="Gxf1ou_6h484_6Ft3IIh-43" value="" style="edgeStyle=orthogonalEdgeStyle;rounded=1;orthogonalLoop=1;jettySize=auto;html=1;labelBackgroundColor=none;strokeColor=#6F0000;fontColor=default;fillColor=#a20025;" parent="1" source="Gxf1ou_6h484_6Ft3IIh-4" target="Gxf1ou_6h484_6Ft3IIh-42" edge="1">
          <mxGeometry relative="1" as="geometry" />
        </mxCell>
        <mxCell id="Gxf1ou_6h484_6Ft3IIh-4" value="Predictive Modelling" style="whiteSpace=wrap;html=1;rounded=1;labelBackgroundColor=none;fillColor=#a20025;strokeColor=#6F0000;fontColor=#ffffff;" parent="1" vertex="1">
          <mxGeometry x="243" y="660" width="120" height="60" as="geometry" />
        </mxCell>
        <mxCell id="JilZe2ffzrrwEnzoaYCA-9" value="" style="edgeStyle=orthogonalEdgeStyle;rounded=0;orthogonalLoop=1;jettySize=auto;html=1;shape=link;dashed=1;" edge="1" parent="1" source="Gxf1ou_6h484_6Ft3IIh-8" target="JilZe2ffzrrwEnzoaYCA-8">
          <mxGeometry relative="1" as="geometry" />
        </mxCell>
        <mxCell id="JilZe2ffzrrwEnzoaYCA-13" value="" style="edgeStyle=orthogonalEdgeStyle;rounded=0;orthogonalLoop=1;jettySize=auto;html=1;" edge="1" parent="1" source="Gxf1ou_6h484_6Ft3IIh-8" target="JilZe2ffzrrwEnzoaYCA-12">
          <mxGeometry relative="1" as="geometry" />
        </mxCell>
        <mxCell id="Gxf1ou_6h484_6Ft3IIh-8" value="Report&lt;br&gt;using Power BI" style="whiteSpace=wrap;html=1;rounded=1;labelBackgroundColor=none;fillColor=#0050ef;strokeColor=#001DBC;fontColor=#ffffff;" parent="1" vertex="1">
          <mxGeometry x="800" y="229" width="120" height="60" as="geometry" />
        </mxCell>
        <mxCell id="JilZe2ffzrrwEnzoaYCA-4" style="edgeStyle=orthogonalEdgeStyle;rounded=0;orthogonalLoop=1;jettySize=auto;html=1;entryX=0;entryY=0.5;entryDx=0;entryDy=0;" edge="1" parent="1" source="Gxf1ou_6h484_6Ft3IIh-10" target="Gxf1ou_6h484_6Ft3IIh-8">
          <mxGeometry relative="1" as="geometry" />
        </mxCell>
        <mxCell id="JilZe2ffzrrwEnzoaYCA-5" value="" style="edgeStyle=orthogonalEdgeStyle;rounded=0;orthogonalLoop=1;jettySize=auto;html=1;shape=link;dashed=1;" edge="1" parent="1" source="Gxf1ou_6h484_6Ft3IIh-10" target="Gxf1ou_6h484_6Ft3IIh-14">
          <mxGeometry relative="1" as="geometry" />
        </mxCell>
        <mxCell id="Gxf1ou_6h484_6Ft3IIh-10" value="Data Preprocessing&lt;br&gt;using SQL Server" style="whiteSpace=wrap;html=1;rounded=1;labelBackgroundColor=none;fillColor=#0050ef;strokeColor=#001DBC;fontColor=#ffffff;" parent="1" vertex="1">
          <mxGeometry x="620" y="229" width="120" height="60" as="geometry" />
        </mxCell>
        <mxCell id="Gxf1ou_6h484_6Ft3IIh-12" value="Paid Fairness" style="whiteSpace=wrap;html=1;rounded=1;labelBackgroundColor=none;fillColor=#0050ef;strokeColor=#001DBC;fontColor=#ffffff;" parent="1" vertex="1">
          <mxGeometry x="620" y="390" width="120" height="60" as="geometry" />
        </mxCell>
        <mxCell id="JilZe2ffzrrwEnzoaYCA-6" value="" style="edgeStyle=orthogonalEdgeStyle;rounded=0;orthogonalLoop=1;jettySize=auto;html=1;shape=link;dashed=1;" edge="1" parent="1" source="Gxf1ou_6h484_6Ft3IIh-14" target="Gxf1ou_6h484_6Ft3IIh-12">
          <mxGeometry relative="1" as="geometry" />
        </mxCell>
        <mxCell id="Gxf1ou_6h484_6Ft3IIh-14" value="Decoding Categorical" style="whiteSpace=wrap;html=1;rounded=1;labelBackgroundColor=none;fillColor=#0050ef;strokeColor=#001DBC;fontColor=#ffffff;" parent="1" vertex="1">
          <mxGeometry x="620" y="310" width="120" height="60" as="geometry" />
        </mxCell>
        <mxCell id="Gxf1ou_6h484_6Ft3IIh-37" style="edgeStyle=orthogonalEdgeStyle;rounded=1;orthogonalLoop=1;jettySize=auto;html=1;exitX=0.5;exitY=1;exitDx=0;exitDy=0;shape=link;dashed=1;labelBackgroundColor=none;strokeColor=#001DBC;fontColor=default;fillColor=#0050ef;" parent="1" source="Gxf1ou_6h484_6Ft3IIh-16" target="Gxf1ou_6h484_6Ft3IIh-18" edge="1">
          <mxGeometry relative="1" as="geometry" />
        </mxCell>
        <mxCell id="Gxf1ou_6h484_6Ft3IIh-16" value="Attrition Analysis" style="whiteSpace=wrap;html=1;rounded=1;labelBackgroundColor=none;fillColor=#0050ef;strokeColor=#001DBC;fontColor=#ffffff;" parent="1" vertex="1">
          <mxGeometry x="450" y="310" width="120" height="60" as="geometry" />
        </mxCell>
        <mxCell id="Gxf1ou_6h484_6Ft3IIh-38" style="edgeStyle=orthogonalEdgeStyle;rounded=1;orthogonalLoop=1;jettySize=auto;html=1;shape=link;dashed=1;labelBackgroundColor=none;strokeColor=#001DBC;fontColor=default;fillColor=#0050ef;" parent="1" source="Gxf1ou_6h484_6Ft3IIh-18" target="Gxf1ou_6h484_6Ft3IIh-20" edge="1">
          <mxGeometry relative="1" as="geometry" />
        </mxCell>
        <mxCell id="Gxf1ou_6h484_6Ft3IIh-18" value="Perfomance Analysis" style="whiteSpace=wrap;html=1;rounded=1;labelBackgroundColor=none;fillColor=#0050ef;strokeColor=#001DBC;fontColor=#ffffff;" parent="1" vertex="1">
          <mxGeometry x="450" y="390" width="120" height="60" as="geometry" />
        </mxCell>
        <mxCell id="Gxf1ou_6h484_6Ft3IIh-20" value="Satisfaction Analysis" style="whiteSpace=wrap;html=1;rounded=1;labelBackgroundColor=none;fillColor=#0050ef;strokeColor=#001DBC;fontColor=#ffffff;" parent="1" vertex="1">
          <mxGeometry x="450" y="470" width="120" height="60" as="geometry" />
        </mxCell>
        <mxCell id="Gxf1ou_6h484_6Ft3IIh-36" style="edgeStyle=orthogonalEdgeStyle;rounded=1;orthogonalLoop=1;jettySize=auto;html=1;shape=link;dashed=1;labelBackgroundColor=none;strokeColor=#001DBC;fontColor=default;fillColor=#0050ef;" parent="1" source="Gxf1ou_6h484_6Ft3IIh-22" target="Gxf1ou_6h484_6Ft3IIh-16" edge="1">
          <mxGeometry relative="1" as="geometry" />
        </mxCell>
        <mxCell id="JilZe2ffzrrwEnzoaYCA-3" style="edgeStyle=orthogonalEdgeStyle;rounded=0;orthogonalLoop=1;jettySize=auto;html=1;entryX=0;entryY=0.5;entryDx=0;entryDy=0;" edge="1" parent="1" source="Gxf1ou_6h484_6Ft3IIh-22" target="Gxf1ou_6h484_6Ft3IIh-10">
          <mxGeometry relative="1" as="geometry" />
        </mxCell>
        <mxCell id="Gxf1ou_6h484_6Ft3IIh-22" value="Business Understanding" style="whiteSpace=wrap;html=1;rounded=1;labelBackgroundColor=none;fillColor=#0050ef;strokeColor=#001DBC;fontColor=#ffffff;" parent="1" vertex="1">
          <mxGeometry x="450" y="229" width="120" height="60" as="geometry" />
        </mxCell>
        <mxCell id="Gxf1ou_6h484_6Ft3IIh-45" value="" style="edgeStyle=orthogonalEdgeStyle;rounded=1;orthogonalLoop=1;jettySize=auto;html=1;labelBackgroundColor=none;strokeColor=#6F0000;fontColor=default;fillColor=#a20025;" parent="1" source="Gxf1ou_6h484_6Ft3IIh-42" target="Gxf1ou_6h484_6Ft3IIh-44" edge="1">
          <mxGeometry relative="1" as="geometry" />
        </mxCell>
        <mxCell id="Gxf1ou_6h484_6Ft3IIh-62" value="" style="edgeStyle=orthogonalEdgeStyle;rounded=1;orthogonalLoop=1;jettySize=auto;html=1;shape=link;dashed=1;labelBackgroundColor=none;strokeColor=#6F0000;fontColor=default;fillColor=#a20025;" parent="1" source="Gxf1ou_6h484_6Ft3IIh-42" target="Gxf1ou_6h484_6Ft3IIh-61" edge="1">
          <mxGeometry relative="1" as="geometry" />
        </mxCell>
        <mxCell id="Gxf1ou_6h484_6Ft3IIh-42" value="EDA" style="whiteSpace=wrap;html=1;rounded=1;labelBackgroundColor=none;fillColor=#a20025;strokeColor=#6F0000;fontColor=#ffffff;" parent="1" vertex="1">
          <mxGeometry x="443" y="660" width="120" height="60" as="geometry" />
        </mxCell>
        <mxCell id="Gxf1ou_6h484_6Ft3IIh-47" value="" style="edgeStyle=orthogonalEdgeStyle;rounded=1;orthogonalLoop=1;jettySize=auto;html=1;shape=link;dashed=1;labelBackgroundColor=none;strokeColor=#6F0000;fontColor=default;fillColor=#a20025;" parent="1" source="Gxf1ou_6h484_6Ft3IIh-44" target="Gxf1ou_6h484_6Ft3IIh-46" edge="1">
          <mxGeometry relative="1" as="geometry" />
        </mxCell>
        <mxCell id="Gxf1ou_6h484_6Ft3IIh-49" value="" style="edgeStyle=orthogonalEdgeStyle;rounded=1;orthogonalLoop=1;jettySize=auto;html=1;labelBackgroundColor=none;strokeColor=#6F0000;fontColor=default;fillColor=#a20025;" parent="1" source="Gxf1ou_6h484_6Ft3IIh-44" target="Gxf1ou_6h484_6Ft3IIh-48" edge="1">
          <mxGeometry relative="1" as="geometry" />
        </mxCell>
        <mxCell id="Gxf1ou_6h484_6Ft3IIh-44" value="Feature Engineering" style="whiteSpace=wrap;html=1;rounded=1;labelBackgroundColor=none;fillColor=#a20025;strokeColor=#6F0000;fontColor=#ffffff;" parent="1" vertex="1">
          <mxGeometry x="620" y="660" width="120" height="60" as="geometry" />
        </mxCell>
        <mxCell id="Gxf1ou_6h484_6Ft3IIh-66" value="" style="edgeStyle=orthogonalEdgeStyle;rounded=1;orthogonalLoop=1;jettySize=auto;html=1;shape=link;dashed=1;labelBackgroundColor=none;strokeColor=#6F0000;fontColor=default;fillColor=#a20025;" parent="1" source="Gxf1ou_6h484_6Ft3IIh-46" target="Gxf1ou_6h484_6Ft3IIh-65" edge="1">
          <mxGeometry relative="1" as="geometry" />
        </mxCell>
        <mxCell id="Gxf1ou_6h484_6Ft3IIh-46" value="Encoding Categorical" style="whiteSpace=wrap;html=1;rounded=1;labelBackgroundColor=none;fillColor=#a20025;strokeColor=#6F0000;fontColor=#ffffff;" parent="1" vertex="1">
          <mxGeometry x="620" y="740" width="120" height="60" as="geometry" />
        </mxCell>
        <mxCell id="Gxf1ou_6h484_6Ft3IIh-51" value="" style="edgeStyle=orthogonalEdgeStyle;rounded=1;orthogonalLoop=1;jettySize=auto;html=1;shape=link;dashed=1;labelBackgroundColor=none;strokeColor=#6F0000;fontColor=default;fillColor=#a20025;" parent="1" source="Gxf1ou_6h484_6Ft3IIh-48" target="Gxf1ou_6h484_6Ft3IIh-50" edge="1">
          <mxGeometry relative="1" as="geometry" />
        </mxCell>
        <mxCell id="Gxf1ou_6h484_6Ft3IIh-55" value="" style="edgeStyle=orthogonalEdgeStyle;rounded=1;orthogonalLoop=1;jettySize=auto;html=1;labelBackgroundColor=none;strokeColor=#6F0000;fontColor=default;fillColor=#a20025;" parent="1" source="Gxf1ou_6h484_6Ft3IIh-48" target="Gxf1ou_6h484_6Ft3IIh-54" edge="1">
          <mxGeometry relative="1" as="geometry" />
        </mxCell>
        <mxCell id="Gxf1ou_6h484_6Ft3IIh-48" value="Modelling&lt;br&gt;Predict Attrition" style="whiteSpace=wrap;html=1;rounded=1;labelBackgroundColor=none;fillColor=#a20025;strokeColor=#6F0000;fontColor=#ffffff;" parent="1" vertex="1">
          <mxGeometry x="800" y="660" width="120" height="60" as="geometry" />
        </mxCell>
        <mxCell id="Gxf1ou_6h484_6Ft3IIh-53" value="" style="edgeStyle=orthogonalEdgeStyle;rounded=1;orthogonalLoop=1;jettySize=auto;html=1;shape=link;dashed=1;labelBackgroundColor=none;strokeColor=#6F0000;fontColor=default;fillColor=#a20025;" parent="1" source="Gxf1ou_6h484_6Ft3IIh-50" target="Gxf1ou_6h484_6Ft3IIh-52" edge="1">
          <mxGeometry relative="1" as="geometry" />
        </mxCell>
        <mxCell id="Gxf1ou_6h484_6Ft3IIh-50" value="Default Parameter" style="whiteSpace=wrap;html=1;rounded=1;labelBackgroundColor=none;fillColor=#a20025;strokeColor=#6F0000;fontColor=#ffffff;" parent="1" vertex="1">
          <mxGeometry x="800" y="740" width="120" height="60" as="geometry" />
        </mxCell>
        <mxCell id="Gxf1ou_6h484_6Ft3IIh-58" style="edgeStyle=orthogonalEdgeStyle;rounded=1;orthogonalLoop=1;jettySize=auto;html=1;entryX=0;entryY=0.5;entryDx=0;entryDy=0;labelBackgroundColor=none;strokeColor=#6F0000;fontColor=default;fillColor=#a20025;" parent="1" source="Gxf1ou_6h484_6Ft3IIh-52" target="Gxf1ou_6h484_6Ft3IIh-54" edge="1">
          <mxGeometry relative="1" as="geometry" />
        </mxCell>
        <mxCell id="Gxf1ou_6h484_6Ft3IIh-52" value="HT Parameter" style="whiteSpace=wrap;html=1;rounded=1;labelBackgroundColor=none;fillColor=#a20025;strokeColor=#6F0000;fontColor=#ffffff;" parent="1" vertex="1">
          <mxGeometry x="800" y="820" width="120" height="60" as="geometry" />
        </mxCell>
        <mxCell id="Gxf1ou_6h484_6Ft3IIh-57" value="" style="edgeStyle=orthogonalEdgeStyle;rounded=1;orthogonalLoop=1;jettySize=auto;html=1;dashed=1;shape=link;labelBackgroundColor=none;strokeColor=#6F0000;fontColor=default;fillColor=#a20025;" parent="1" source="Gxf1ou_6h484_6Ft3IIh-54" target="Gxf1ou_6h484_6Ft3IIh-56" edge="1">
          <mxGeometry relative="1" as="geometry" />
        </mxCell>
        <mxCell id="Gxf1ou_6h484_6Ft3IIh-54" value="Evaluation" style="whiteSpace=wrap;html=1;rounded=1;labelBackgroundColor=none;fillColor=#a20025;strokeColor=#6F0000;fontColor=#ffffff;" parent="1" vertex="1">
          <mxGeometry x="990" y="660" width="120" height="60" as="geometry" />
        </mxCell>
        <mxCell id="Gxf1ou_6h484_6Ft3IIh-60" value="" style="edgeStyle=orthogonalEdgeStyle;rounded=1;orthogonalLoop=1;jettySize=auto;html=1;dashed=1;shape=link;labelBackgroundColor=none;strokeColor=#6F0000;fontColor=default;fillColor=#a20025;" parent="1" source="Gxf1ou_6h484_6Ft3IIh-56" target="Gxf1ou_6h484_6Ft3IIh-59" edge="1">
          <mxGeometry relative="1" as="geometry" />
        </mxCell>
        <mxCell id="Gxf1ou_6h484_6Ft3IIh-56" value="Model Algorithm" style="whiteSpace=wrap;html=1;rounded=1;labelBackgroundColor=none;fillColor=#a20025;strokeColor=#6F0000;fontColor=#ffffff;" parent="1" vertex="1">
          <mxGeometry x="990" y="740" width="120" height="60" as="geometry" />
        </mxCell>
        <mxCell id="Gxf1ou_6h484_6Ft3IIh-59" value="Metrics Eval&lt;br&gt;Feature Importance" style="whiteSpace=wrap;html=1;rounded=1;labelBackgroundColor=none;fillColor=#a20025;strokeColor=#6F0000;fontColor=#ffffff;" parent="1" vertex="1">
          <mxGeometry x="990" y="820" width="120" height="60" as="geometry" />
        </mxCell>
        <mxCell id="Gxf1ou_6h484_6Ft3IIh-64" value="" style="edgeStyle=orthogonalEdgeStyle;rounded=1;orthogonalLoop=1;jettySize=auto;html=1;shape=link;dashed=1;labelBackgroundColor=none;strokeColor=#6F0000;fontColor=default;fillColor=#a20025;" parent="1" source="Gxf1ou_6h484_6Ft3IIh-61" target="Gxf1ou_6h484_6Ft3IIh-63" edge="1">
          <mxGeometry relative="1" as="geometry" />
        </mxCell>
        <mxCell id="Gxf1ou_6h484_6Ft3IIh-61" value="Distribution" style="whiteSpace=wrap;html=1;rounded=1;labelBackgroundColor=none;fillColor=#a20025;strokeColor=#6F0000;fontColor=#ffffff;" parent="1" vertex="1">
          <mxGeometry x="443" y="740" width="120" height="60" as="geometry" />
        </mxCell>
        <mxCell id="Gxf1ou_6h484_6Ft3IIh-63" value="Matrix Correlation" style="whiteSpace=wrap;html=1;rounded=1;labelBackgroundColor=none;fillColor=#a20025;strokeColor=#6F0000;fontColor=#ffffff;" parent="1" vertex="1">
          <mxGeometry x="443" y="820" width="120" height="60" as="geometry" />
        </mxCell>
        <mxCell id="Gxf1ou_6h484_6Ft3IIh-65" value="Feature Selection" style="whiteSpace=wrap;html=1;rounded=1;labelBackgroundColor=none;fillColor=#a20025;strokeColor=#6F0000;fontColor=#ffffff;" parent="1" vertex="1">
          <mxGeometry x="620" y="820" width="120" height="60" as="geometry" />
        </mxCell>
        <mxCell id="JilZe2ffzrrwEnzoaYCA-8" value="Data Preprocssing using Power Query" style="whiteSpace=wrap;html=1;fillColor=#0050ef;strokeColor=#001DBC;fontColor=#ffffff;rounded=1;labelBackgroundColor=none;" vertex="1" parent="1">
          <mxGeometry x="800" y="310" width="120" height="60" as="geometry" />
        </mxCell>
        <mxCell id="JilZe2ffzrrwEnzoaYCA-18" style="edgeStyle=orthogonalEdgeStyle;rounded=0;orthogonalLoop=1;jettySize=auto;html=1;entryX=0.5;entryY=0;entryDx=0;entryDy=0;shape=link;dashed=1;" edge="1" parent="1" source="JilZe2ffzrrwEnzoaYCA-12" target="JilZe2ffzrrwEnzoaYCA-14">
          <mxGeometry relative="1" as="geometry" />
        </mxCell>
        <mxCell id="JilZe2ffzrrwEnzoaYCA-12" value="Summary Analysis" style="whiteSpace=wrap;html=1;fillColor=#0050ef;strokeColor=#001DBC;fontColor=#ffffff;rounded=1;labelBackgroundColor=none;" vertex="1" parent="1">
          <mxGeometry x="990" y="229" width="120" height="60" as="geometry" />
        </mxCell>
        <mxCell id="JilZe2ffzrrwEnzoaYCA-19" style="edgeStyle=orthogonalEdgeStyle;rounded=0;orthogonalLoop=1;jettySize=auto;html=1;entryX=0.5;entryY=0;entryDx=0;entryDy=0;shape=link;dashed=1;" edge="1" parent="1" source="JilZe2ffzrrwEnzoaYCA-14" target="JilZe2ffzrrwEnzoaYCA-15">
          <mxGeometry relative="1" as="geometry" />
        </mxCell>
        <mxCell id="JilZe2ffzrrwEnzoaYCA-14" value="Attrition Analysis" style="whiteSpace=wrap;html=1;rounded=1;labelBackgroundColor=none;fillColor=#0050ef;strokeColor=#001DBC;fontColor=#ffffff;" vertex="1" parent="1">
          <mxGeometry x="990" y="310" width="120" height="60" as="geometry" />
        </mxCell>
        <mxCell id="JilZe2ffzrrwEnzoaYCA-20" style="edgeStyle=orthogonalEdgeStyle;rounded=0;orthogonalLoop=1;jettySize=auto;html=1;entryX=0.5;entryY=0;entryDx=0;entryDy=0;shape=link;dashed=1;" edge="1" parent="1" source="JilZe2ffzrrwEnzoaYCA-15" target="JilZe2ffzrrwEnzoaYCA-16">
          <mxGeometry relative="1" as="geometry" />
        </mxCell>
        <mxCell id="JilZe2ffzrrwEnzoaYCA-15" value="Perfomance Analysis" style="whiteSpace=wrap;html=1;rounded=1;labelBackgroundColor=none;fillColor=#0050ef;strokeColor=#001DBC;fontColor=#ffffff;" vertex="1" parent="1">
          <mxGeometry x="990" y="390" width="120" height="60" as="geometry" />
        </mxCell>
        <mxCell id="JilZe2ffzrrwEnzoaYCA-16" value="Satisfaction Analysis" style="whiteSpace=wrap;html=1;rounded=1;labelBackgroundColor=none;fillColor=#0050ef;strokeColor=#001DBC;fontColor=#ffffff;" vertex="1" parent="1">
          <mxGeometry x="990" y="470" width="120" height="60" as="geometry" />
        </mxCell>
      </root>
    </mxGraphModel>
  </diagram>
</mxfile>
